# xmcd CD database file
#
# Track frame offsets:
#	150
#	1505
#	18630
#	29339
#	43390
#	53078
#	63739
#	80638
#	92809
#	102257
#	115933
#	123356
#	131214
#	148840
#	164645
#	165597
#
# Disc length: 2473 seconds
#
# Revision: 2
# Processed by: cddbd v1.5PL3 Copyright (c) Steve Scherf et al.
# Submitted via: CDex 1.51
#
DISCID=e209a710
DTITLE=DJ Whoo Kid/Mobb Deep ft. Alchemist - The New Mobb Deep
DYEAR=2004
DGENRE=Hip-Hop
TTITLE0=Havoc Intro
TTITLE1=Mobb Deep ft. Alchemist
TTITLE2=Let Nothing Die
TTITLE3=Going To Pack My Cali ft. Game
TTITLE4=Art Of War
TTITLE5=There That Go
TTITLE6=Runnin' For Cover ft. Snoop
TTITLE7=When You Hear That ft. Alchemist
TTITLE8=I'll Make You Famous
TTITLE9=Pop Them Things ft. 50
TTITLE10=Somebody Be Dead ft. Alchemist
TTITLE11=Freestyle
TTITLE12=HEAT
TTITLE13=Shorty
TTITLE14=Outro
TTITLE15=?
EXTD=YEAR: 2004
EXTT0=
EXTT1=
EXTT2=
EXTT3=
EXTT4=
EXTT5=
EXTT6=
EXTT7=
EXTT8=
EXTT9=
EXTT10=
EXTT11=
EXTT12=
EXTT13=
EXTT14=
EXTT15=
PLAYORDER=
